# xmcd CD database file
#
# Track frame offsets:
#	150
#	14006
#	33848
#	52719
#	81013
#	105574
#	120732
#	144113
#	193273
#	207679
#
# Disc length: 2991 seconds
#
# Revision: 0
# Processed by: cddbd v1.5.2PL0 Copyright (c) Steve Scherf et al.
# Submitted via: CDex 1.70beta2
#
DISCID=820bad0a
DTITLE=carla oehmd - Bring The Wing
DYEAR=2003
DGENRE=Jazz
TTITLE0=Tough Talk
TTITLE1=Bring The Wing (Mittags beim Spülen)
TTITLE2=Taxi Driver
TTITLE3=Nummer 60
TTITLE4=Ride The Dromedar
TTITLE5=Joy Spring
TTITLE6=Liberated Brother
TTITLE7=South Indian Line
TTITLE8=Sister Sadie
TTITLE9=Follow The "I"
EXTD=YEAR: 2003
EXTT0=
EXTT1=
EXTT2=
EXTT3=
EXTT4=
EXTT5=
EXTT6=
EXTT7=
EXTT8=
EXTT9=
PLAYORDER=
